<?xml version="1.0" encoding="UTF-8" standalone="no"?>
<!-- Created with Inkscape (http://www.inkscape.org/) -->

<svg
   width="1025"
   height="1025"
   viewBox="0 0 271.19791 271.19791"
   version="1.1"
   id="svg1"
   xml:space="preserve"
   inkscape:version="1.3.2 (091e20e, 2023-11-25)"
   sodipodi:docname="logo-dark.svg"
   xmlns:inkscape="http://www.inkscape.org/namespaces/inkscape"
   xmlns:sodipodi="http://sodipodi.sourceforge.net/DTD/sodipodi-0.dtd"
   xmlns="http://www.w3.org/2000/svg"
   xmlns:svg="http://www.w3.org/2000/svg"><sodipodi:namedview
     id="namedview1"
     pagecolor="#ffffff"
     bordercolor="#000000"
     borderopacity="0.25"
     inkscape:showpageshadow="2"
     inkscape:pageopacity="0.0"
     inkscape:pagecheckerboard="0"
     inkscape:deskcolor="#d1d1d1"
     inkscape:document-units="mm"
     inkscape:zoom="0.73406285"
     inkscape:cx="396.42382"
     inkscape:cy="558.53528"
     inkscape:window-width="1920"
     inkscape:window-height="1019"
     inkscape:window-x="0"
     inkscape:window-y="30"
     inkscape:window-maximized="1"
     inkscape:current-layer="layer1" /><defs
     id="defs1" /><g
     inkscape:label="Layer 1"
     inkscape:groupmode="layer"
     id="layer1"><rect
       style="fill:#000000;fill-opacity:1;stroke-width:0.264583"
       id="rect2"
       width="273.41864"
       height="272.48599"
       x="-0.95968735"
       y="-0.37638092" /><g
       id="g1"
       transform="matrix(7.4269125,0,0,7.4694327,-400.07296,-739.61855)"><path
         style="fill:#fbe1d4;stroke:none"
         d="m 83.724138,128.67787 0.352778,0.35277 z"
         id="path35" /><path
         style="fill:#f19d70;stroke:none"
         d="m 83.37136,128.67787 0.352778,0.35277 z"
         id="path34" /><path
         style="fill:#e86e2c;stroke:none"
         d="m 83.018582,128.67787 0.352778,0.35277 z"
         id="path33" /><path
         style="fill:#e5590d;stroke:none"
         d="m 61.146361,128.67787 0.352778,0.35277 -0.352778,-0.35277 m 21.519444,0 0.352777,0.35277 z"
         id="path32" /><path
         style="fill:#e86e2c;stroke:none"
         d="m 60.793584,128.67787 0.352777,0.35277 z"
         id="path31" /><path
         style="fill:#f19d70;stroke:none"
         d="m 60.440806,128.67787 0.352778,0.35277 z"
         id="path30" /><path
         style="fill:#fbe1d4;stroke:none"
         d="m 60.088028,128.67787 0.352778,0.35277 z"
         id="path29" /><path
         style="fill:#f19d70;stroke:none"
         d="m 84.076916,128.32509 0.352777,0.35278 z"
         id="path28" /><path
         style="fill:#f0996b;stroke:none"
         d="m 59.73525,128.32509 0.352778,0.35278 z"
         id="path27" /><path
         style="fill:#ec7e43;stroke:none"
         d="m 59.382473,127.97231 0.352777,0.35278 -0.352777,-0.35278 m 25.04722,0 0.352778,0.35278 z"
         id="path26" /><path
         style="fill:#f19d70;stroke:none"
         d="m 84.782471,127.61953 0.352778,0.35278 z"
         id="path25" /><path
         style="fill:#f0996b;stroke:none"
         d="m 59.029695,127.61953 0.352778,0.35278 z"
         id="path24" /><path
         style="fill:#fbe1d4;stroke:none"
         d="m 58.676917,127.26675 0.352778,0.35278 -0.352778,-0.35278 m 26.458332,0 0.352778,0.35278 z"
         id="path23" /><path
         style="fill:#f19d70;stroke:none"
         d="m 58.676917,126.91398 0.352778,0.35277 -0.352778,-0.35277 m 26.458332,0 0.352778,0.35277 z"
         id="path22" /><path
         style="fill:#e86e2c;stroke:none"
         d="m 58.676917,126.5612 0.352778,0.35278 -0.352778,-0.35278 m 26.458332,0 0.352778,0.35278 z"
         id="path21" /><path
         style="fill:#e5590d;stroke:none"
         d="m 58.676917,126.20842 0.352778,0.35278 -0.352778,-0.35278 m 26.458332,0 0.352778,0.35278 z"
         id="path20" /><path
         style="fill:#ffffff;stroke:none;fill-opacity:1"
         d="m 58.676917,113.50842 v 7.05556 h 12.699999 v -7.05556 H 58.676917 m 14.11111,0 v 7.05556 h 12.7 v -7.05556 h -12.7 m -14.11111,8.46667 c 0,4.60314 0.522635,7.04142 5.644444,7.05555 v -7.05555 h -5.644444 m 7.055555,0 v 7.05555 h 12.7 v -7.05555 h -12.7 m 14.111111,0 v 7.05555 c 5.121809,-0.0141 5.644444,-2.45241 5.644444,-7.05555 z"
         id="path19" /><path
         style="fill:#e5590d;stroke:none"
         d="m 58.676917,107.5112 0.352778,0.35278 -0.352778,-0.35278 m 26.458332,0 0.352778,0.35278 z"
         id="path18" /><path
         style="fill:#e86e2c;stroke:none"
         d="m 58.676917,107.15842 0.352778,0.35278 -0.352778,-0.35278 m 26.458332,0 0.352778,0.35278 z"
         id="path17" /><path
         style="fill:#f19d70;stroke:none"
         d="m 58.676917,106.80564 0.352778,0.35278 -0.352778,-0.35278 m 26.458332,0 0.352778,0.35278 z"
         id="path16" /><path
         style="fill:#fbe1d4;stroke:none"
         d="m 58.676917,106.45287 0.352778,0.35277 -0.352778,-0.35277 m 26.458332,0 0.352778,0.35277 z"
         id="path15" /><path
         style="fill:#f0996b;stroke:none"
         d="m 59.029695,106.10009 0.352778,0.35278 -0.352778,-0.35278 m 25.752776,0 0.352778,0.35278 z"
         id="path14" /><path
         style="fill:#ec7e43;stroke:none"
         d="m 59.382473,105.74731 0.352777,0.35278 -0.352777,-0.35278 m 25.04722,0 0.352778,0.35278 z"
         id="path13" /><path
         style="fill:#f0996b;stroke:none"
         d="m 59.73525,105.39453 0.352778,0.35278 -0.352778,-0.35278 m 24.341666,0 0.352777,0.35278 z"
         id="path12" /><path
         style="fill:#fbe1d4;stroke:none"
         d="m 83.724138,105.04176 0.352778,0.35277 z"
         id="path11" /><path
         style="fill:#f19d70;stroke:none"
         d="m 83.37136,105.04176 0.352778,0.35277 z"
         id="path10" /><path
         style="fill:#e86e2c;stroke:none"
         d="m 83.018582,105.04176 0.352778,0.35277 z"
         id="path9" /><path
         style="fill:#e5590d;stroke:none"
         d="m 82.665805,105.04176 0.352777,0.35277 z"
         id="path8" /><path
         style="fill:#ffffff;stroke:none;fill-opacity:1"
         d="m 65.732472,105.04176 v 7.05555 h 12.7 v -7.05555 h -12.7 m 14.111111,0 v 7.05555 h 5.644444 c 0,-4.60314 -0.522632,-7.04142 -5.644444,-7.05555 z"
         id="path7" /><path
         style="fill:#000000;stroke:none;fill-opacity:1"
         d="m 64.321361,105.04176 v 7.05555 h -5.644444 v 1.41111 h 12.699999 v 7.05556 H 58.676917 v 1.41111 h 5.644444 v 7.05555 h 1.411111 v -7.05555 h 12.7 v 7.05555 h 1.411111 v -7.05555 h 5.644444 v -1.41111 h -12.7 v -7.05556 h 12.7 v -1.41111 h -5.644444 v -7.05555 h -1.411111 v 7.05555 h -12.7 v -7.05555 z"
         id="path6" /><path
         style="fill:#ffffff;stroke:none;fill-opacity:1"
         d="m 58.676917,112.09731 h 5.644444 v -7.05555 c -5.121809,0.0141 -5.644444,2.45241 -5.644444,7.05555 z"
         id="path5" /><path
         style="fill:#e5590d;stroke:none"
         d="m 61.146361,105.04176 0.352778,0.35277 z"
         id="path4" /><path
         style="fill:#e86e2c;stroke:none"
         d="m 60.793584,105.04176 0.352777,0.35277 z"
         id="path3" /><path
         style="fill:#f19d70;stroke:none"
         d="m 60.440806,105.04176 0.352778,0.35277 z"
         id="path2" /><path
         style="fill:#fbe1d4;stroke:none"
         d="m 60.088028,105.04176 0.352778,0.35277 z"
         id="path1" /></g></g></svg>
